<svg width="400" height="393" viewBox="0 0 400 393" fill="none" xmlns="http://www.w3.org/2000/svg">
<g filter="url(#filter0_f)">
<path d="M8.9 67.7C8.9 64.1 9.53333 60.6667 10.8 57.4C12.0667 54.0667 13.9 51.1667 16.3 48.7C18.7667 46.1667 21.8 44.1667 25.4 42.7C29 41.1667 33.1333 40.4 37.8 40.4C44.2 40.4 49.5333 41.7333 53.8 44.4C58.1333 47.0667 61.3667 50.5 63.5 54.7L45 60.3C43.2 57.7 40.7667 56.4 37.7 56.4C35.1 56.4 32.9 57.4 31.1 59.4C29.3 61.3333 28.4 64.1 28.4 67.7C28.4 71.3 29.3 74.1 31.1 76.1C32.9 78.0333 35.1 79 37.7 79C40.7667 79 43.2 77.7 45 75.1L63.5 80.7C61.3667 84.9 58.1333 88.3333 53.8 91C49.5333 93.6667 44.2 95 37.8 95C33.1333 95 29 94.2667 25.4 92.8C21.8 91.2667 18.7667 89.2667 16.3 86.8C13.9 84.2667 12.0667 81.3667 10.8 78.1C9.53333 74.7667 8.9 71.3 8.9 67.7ZM94.9266 95C90.1932 95 86.0266 94.2667 82.4266 92.8C78.8932 91.2667 75.8932 89.2667 73.4266 86.8C71.0266 84.2667 69.1932 81.3667 67.9266 78.1C66.7266 74.7667 66.1266 71.3 66.1266 67.7C66.1266 64.1 66.7266 60.6667 67.9266 57.4C69.1932 54.0667 71.0266 51.1667 73.4266 48.7C75.8932 46.1667 78.8932 44.1667 82.4266 42.7C86.0266 41.1667 90.1932 40.4 94.9266 40.4C99.5932 40.4 103.727 41.1667 107.327 42.7C110.927 44.1667 113.927 46.1667 116.327 48.7C118.793 51.1667 120.627 54.0667 121.827 57.4C123.093 60.6667 123.727 64.1 123.727 67.7C123.727 71.3 123.093 74.7667 121.827 78.1C120.627 81.3667 118.793 84.2667 116.327 86.8C113.927 89.2667 110.927 91.2667 107.327 92.8C103.727 94.2667 99.5932 95 94.9266 95ZM85.6266 67.7C85.6266 71.2333 86.4932 74 88.2266 76C89.9599 78 92.1932 79 94.9266 79C97.6599 79 99.8932 78 101.627 76C103.36 74 104.227 71.2333 104.227 67.7C104.227 64.1667 103.36 61.4 101.627 59.4C99.8932 57.4 97.6599 56.4 94.9266 56.4C92.1932 56.4 89.9599 57.4 88.2266 59.4C86.4932 61.4 85.6266 64.1667 85.6266 67.7ZM152.452 95C148.852 95 145.519 94.3333 142.452 93C139.452 91.6667 136.852 89.8 134.652 87.4C132.452 84.9333 130.719 82.0333 129.452 78.7C128.252 75.3 127.652 71.6 127.652 67.6C127.652 63.7333 128.219 60.1333 129.352 56.8C130.486 53.4667 132.052 50.6 134.052 48.2C136.119 45.7333 138.552 43.8333 141.352 42.5C144.152 41.1 147.252 40.4 150.652 40.4C154.052 40.4 157.152 41.1667 159.952 42.7C162.819 44.2333 165.019 46.4 166.552 49.2V21H185.552V73C185.552 74.8 185.819 76.0667 186.352 76.8C186.886 77.4667 187.819 77.8667 189.152 78V94C185.886 94.6667 183.219 95 181.152 95C174.686 95 170.952 92.5667 169.952 87.7L169.552 85.8C167.752 89 165.319 91.3333 162.252 92.8C159.186 94.2667 155.919 95 152.452 95ZM157.652 79C161.119 79 164.119 77.2 166.652 73.6V64.2C165.719 61.8667 164.352 60 162.552 58.6C160.752 57.1333 158.852 56.4 156.852 56.4C155.452 56.4 154.152 56.7 152.952 57.3C151.819 57.9 150.819 58.7333 149.952 59.8C149.152 60.8667 148.486 62.1 147.952 63.5C147.486 64.9 147.252 66.4 147.252 68C147.252 71.3333 148.186 74 150.052 76C151.986 78 154.519 79 157.652 79ZM222.856 95C218.256 95 214.156 94.3 210.556 92.9C206.956 91.4333 203.923 89.4667 201.456 87C199.056 84.5333 197.223 81.7 195.956 78.5C194.69 75.3 194.056 71.9333 194.056 68.4C194.056 64.6 194.656 61 195.856 57.6C197.123 54.2 198.956 51.2333 201.356 48.7C203.823 46.1667 206.823 44.1667 210.356 42.7C213.956 41.1667 218.123 40.4 222.856 40.4C227.523 40.4 231.656 41.1667 235.256 42.7C238.856 44.1667 241.856 46.1667 244.256 48.7C246.723 51.1667 248.556 54.0667 249.756 57.4C251.023 60.6667 251.656 64.1 251.656 67.7C251.656 68.7 251.59 69.7333 251.456 70.8C251.39 71.8 251.29 72.7 251.156 73.5H214.256C214.456 76.3 215.49 78.3333 217.356 79.6C219.223 80.8 221.256 81.4 223.456 81.4C225.523 81.4 227.456 80.9333 229.256 80C231.123 79.0667 232.356 77.7667 232.956 76.1L249.056 80.7C246.923 84.9 243.623 88.3333 239.156 91C234.756 93.6667 229.323 95 222.856 95ZM231.256 62.1C230.923 59.5667 229.99 57.5667 228.456 56.1C226.923 54.6333 224.956 53.9 222.556 53.9C220.156 53.9 218.19 54.6333 216.656 56.1C215.123 57.5667 214.19 59.5667 213.856 62.1H231.256Z" fill="white"/>
<path d="M148 155C144.6 155 141.467 154.333 138.6 153C135.8 151.6 133.4 149.733 131.4 147.4C129.4 145 127.833 142.2 126.7 139C125.633 135.8 125.1 132.333 125.1 128.6C125.1 124.667 125.7 121.033 126.9 117.7C128.1 114.367 129.767 111.5 131.9 109.1C134.1 106.7 136.7 104.833 139.7 103.5C142.7 102.1 146 101.4 149.6 101.4C153.4 101.4 156.733 102.167 159.6 103.7C162.467 105.167 164.733 107.333 166.4 110.2V102.4H182.9V150.2C182.9 154.333 182.133 158.067 180.6 161.4C179.067 164.733 176.9 167.567 174.1 169.9C171.3 172.233 167.933 174.033 164 175.3C160.067 176.633 155.7 177.3 150.9 177.3C145.3 177.3 140.433 176.433 136.3 174.7C132.167 172.967 128.5 170.467 125.3 167.2L135.3 156.8C137.233 158.6 139.533 160.1 142.2 161.3C144.933 162.567 147.833 163.2 150.9 163.2C152.633 163.2 154.267 162.967 155.8 162.5C157.4 162.033 158.8 161.267 160 160.2C161.2 159.2 162.133 157.867 162.8 156.2C163.533 154.533 163.9 152.533 163.9 150.2V146.8C162.367 149.6 160.167 151.667 157.3 153C154.5 154.333 151.4 155 148 155ZM154.8 140C156.733 140 158.4 139.567 159.8 138.7C161.267 137.767 162.633 136.4 163.9 134.6V125.2C162.967 122.8 161.567 120.9 159.7 119.5C157.9 118.1 156 117.4 154 117.4C152.667 117.4 151.4 117.733 150.2 118.4C149.067 119 148.067 119.833 147.2 120.9C146.333 121.9 145.667 123.133 145.2 124.6C144.733 126 144.5 127.5 144.5 129.1C144.5 132.367 145.467 135 147.4 137C149.333 139 151.8 140 154.8 140ZM228.246 118.6C224.579 118.6 221.246 119 218.246 119.8C215.246 120.6 213.013 121.933 211.546 123.8V155H192.546V102.4H209.946V112.4C211.813 108.867 214.113 106.167 216.846 104.3C219.646 102.367 222.646 101.4 225.846 101.4C227.113 101.4 227.913 101.433 228.246 101.5V118.6ZM260.048 156C255.448 156 251.348 155.3 247.748 153.9C244.148 152.433 241.114 150.467 238.648 148C236.248 145.533 234.414 142.7 233.148 139.5C231.881 136.3 231.248 132.933 231.248 129.4C231.248 125.6 231.848 122 233.048 118.6C234.314 115.2 236.148 112.233 238.548 109.7C241.014 107.167 244.014 105.167 247.548 103.7C251.148 102.167 255.314 101.4 260.048 101.4C264.714 101.4 268.848 102.167 272.448 103.7C276.048 105.167 279.048 107.167 281.448 109.7C283.914 112.167 285.748 115.067 286.948 118.4C288.214 121.667 288.848 125.1 288.848 128.7C288.848 129.7 288.781 130.733 288.648 131.8C288.581 132.8 288.481 133.7 288.348 134.5H251.448C251.648 137.3 252.681 139.333 254.548 140.6C256.414 141.8 258.448 142.4 260.648 142.4C262.714 142.4 264.648 141.933 266.448 141C268.314 140.067 269.548 138.767 270.148 137.1L286.248 141.7C284.114 145.9 280.814 149.333 276.348 152C271.948 154.667 266.514 156 260.048 156ZM268.448 123.1C268.114 120.567 267.181 118.567 265.648 117.1C264.114 115.633 262.148 114.9 259.748 114.9C257.348 114.9 255.381 115.633 253.848 117.1C252.314 118.567 251.381 120.567 251.048 123.1H268.448ZM310.585 156C307.985 156 305.552 155.567 303.285 154.7C301.018 153.833 299.052 152.667 297.385 151.2C295.785 149.667 294.518 147.867 293.585 145.8C292.652 143.733 292.185 141.5 292.185 139.1C292.185 136.433 292.752 134 293.885 131.8C295.018 129.6 296.585 127.7 298.585 126.1C300.585 124.5 302.952 123.267 305.685 122.4C308.485 121.533 311.552 121.1 314.885 121.1C319.152 121.1 322.685 121.767 325.485 123.1V121.5C325.485 119.033 324.752 117.2 323.285 116C321.885 114.8 319.585 114.2 316.385 114.2C313.385 114.2 310.618 114.7 308.085 115.7C305.552 116.633 302.885 118.033 300.085 119.9L294.585 108.1C301.518 103.633 309.418 101.4 318.285 101.4C326.685 101.4 333.152 103.267 337.685 107C342.218 110.733 344.485 116.333 344.485 123.8V134C344.485 135.8 344.752 137.067 345.285 137.8C345.818 138.467 346.752 138.867 348.085 139V155C346.552 155.333 345.085 155.567 343.685 155.7C342.352 155.9 341.152 156 340.085 156C336.685 156 334.085 155.4 332.285 154.2C330.552 152.933 329.418 151.1 328.885 148.7L328.485 146.8C326.152 149.8 323.452 152.1 320.385 153.7C317.318 155.233 314.052 156 310.585 156ZM316.285 142.4C317.418 142.4 318.585 142.233 319.785 141.9C320.985 141.5 322.052 141 322.985 140.4C323.718 139.867 324.318 139.3 324.785 138.7C325.252 138.033 325.485 137.367 325.485 136.7V132.8C324.352 132.4 323.118 132.067 321.785 131.8C320.452 131.533 319.252 131.4 318.185 131.4C315.852 131.4 313.918 131.967 312.385 133.1C310.852 134.233 310.085 135.667 310.085 137.4C310.085 138.867 310.652 140.067 311.785 141C312.985 141.933 314.485 142.4 316.285 142.4ZM391.263 152.1C388.596 153.233 385.729 154.2 382.663 155C379.663 155.733 376.696 156.1 373.763 156.1C371.629 156.1 369.596 155.833 367.663 155.3C365.729 154.767 364.029 153.9 362.563 152.7C361.163 151.5 360.029 149.933 359.163 148C358.363 146.067 357.963 143.667 357.963 140.8V116.7H351.463V102.4H357.963V85.9H376.963V102.4H387.263V116.7H376.963V134.1C376.963 135.833 377.329 137.067 378.063 137.8C378.796 138.467 379.796 138.8 381.063 138.8C381.996 138.8 383.063 138.667 384.263 138.4C385.463 138.067 386.663 137.633 387.863 137.1L391.263 152.1Z" fill="#84D346"/>
<path d="M26.8 237V184.4H45.8V237H26.8ZM26.8 180V164H45.8V180H26.8ZM77.4133 238C73.8133 238 70.4799 237.333 67.4133 236C64.4133 234.667 61.8133 232.8 59.6133 230.4C57.4133 227.933 55.6799 225.033 54.4133 221.7C53.2133 218.3 52.6133 214.6 52.6133 210.6C52.6133 206.733 53.1799 203.133 54.3133 199.8C55.4466 196.467 57.0133 193.6 59.0133 191.2C61.0799 188.733 63.5133 186.833 66.3133 185.5C69.1133 184.1 72.2133 183.4 75.6133 183.4C79.0133 183.4 82.1133 184.167 84.9133 185.7C87.7799 187.233 89.9799 189.4 91.5133 192.2V164H110.513V216C110.513 217.8 110.78 219.067 111.313 219.8C111.847 220.467 112.78 220.867 114.113 221V237C110.847 237.667 108.18 238 106.113 238C99.6466 238 95.9133 235.567 94.9133 230.7L94.5133 228.8C92.7133 232 90.28 234.333 87.2133 235.8C84.1466 237.267 80.8799 238 77.4133 238ZM82.6133 222C86.0799 222 89.0799 220.2 91.6133 216.6V207.2C90.68 204.867 89.3133 203 87.5133 201.6C85.7133 200.133 83.8133 199.4 81.8133 199.4C80.4133 199.4 79.1133 199.7 77.9133 200.3C76.7799 200.9 75.7799 201.733 74.9133 202.8C74.1133 203.867 73.4466 205.1 72.9133 206.5C72.4466 207.9 72.2133 209.4 72.2133 211C72.2133 214.333 73.1466 217 75.0133 219C76.9466 221 79.4799 222 82.6133 222ZM147.817 238C143.217 238 139.117 237.3 135.517 235.9C131.917 234.433 128.884 232.467 126.417 230C124.017 227.533 122.184 224.7 120.917 221.5C119.651 218.3 119.017 214.933 119.017 211.4C119.017 207.6 119.617 204 120.817 200.6C122.084 197.2 123.917 194.233 126.317 191.7C128.784 189.167 131.784 187.167 135.317 185.7C138.917 184.167 143.084 183.4 147.817 183.4C152.484 183.4 156.617 184.167 160.217 185.7C163.817 187.167 166.817 189.167 169.217 191.7C171.684 194.167 173.517 197.067 174.717 200.4C175.984 203.667 176.617 207.1 176.617 210.7C176.617 211.7 176.551 212.733 176.417 213.8C176.351 214.8 176.251 215.7 176.117 216.5H139.217C139.417 219.3 140.451 221.333 142.317 222.6C144.184 223.8 146.217 224.4 148.417 224.4C150.484 224.4 152.417 223.933 154.217 223C156.084 222.067 157.317 220.767 157.917 219.1L174.017 223.7C171.884 227.9 168.584 231.333 164.117 234C159.717 236.667 154.284 238 147.817 238ZM156.217 205.1C155.884 202.567 154.951 200.567 153.417 199.1C151.884 197.633 149.917 196.9 147.517 196.9C145.117 196.9 143.151 197.633 141.617 199.1C140.084 200.567 139.151 202.567 138.817 205.1H156.217ZM198.355 238C195.755 238 193.321 237.567 191.055 236.7C188.788 235.833 186.821 234.667 185.155 233.2C183.555 231.667 182.288 229.867 181.355 227.8C180.421 225.733 179.955 223.5 179.955 221.1C179.955 218.433 180.521 216 181.655 213.8C182.788 211.6 184.355 209.7 186.355 208.1C188.355 206.5 190.721 205.267 193.455 204.4C196.255 203.533 199.321 203.1 202.655 203.1C206.921 203.1 210.455 203.767 213.255 205.1V203.5C213.255 201.033 212.521 199.2 211.055 198C209.655 196.8 207.355 196.2 204.155 196.2C201.155 196.2 198.388 196.7 195.855 197.7C193.321 198.633 190.655 200.033 187.855 201.9L182.355 190.1C189.288 185.633 197.188 183.4 206.055 183.4C214.455 183.4 220.921 185.267 225.455 189C229.988 192.733 232.255 198.333 232.255 205.8V216C232.255 217.8 232.521 219.067 233.055 219.8C233.588 220.467 234.521 220.867 235.855 221V237C234.321 237.333 232.855 237.567 231.455 237.7C230.121 237.9 228.921 238 227.855 238C224.455 238 221.855 237.4 220.055 236.2C218.321 234.933 217.188 233.1 216.655 230.7L216.255 228.8C213.921 231.8 211.221 234.1 208.155 235.7C205.088 237.233 201.821 238 198.355 238ZM204.055 224.4C205.188 224.4 206.355 224.233 207.555 223.9C208.755 223.5 209.821 223 210.755 222.4C211.488 221.867 212.088 221.3 212.555 220.7C213.021 220.033 213.255 219.367 213.255 218.7V214.8C212.121 214.4 210.888 214.067 209.555 213.8C208.221 213.533 207.021 213.4 205.955 213.4C203.621 213.4 201.688 213.967 200.155 215.1C198.621 216.233 197.855 217.667 197.855 219.4C197.855 220.867 198.421 222.067 199.555 223C200.755 223.933 202.255 224.4 204.055 224.4ZM264.418 238C259.818 238 255.318 237.267 250.918 235.8C246.518 234.267 242.785 232.067 239.718 229.2L246.218 217.8C249.485 220 252.618 221.7 255.618 222.9C258.685 224.1 261.485 224.7 264.018 224.7C266.685 224.7 268.018 223.867 268.018 222.2C268.018 221.267 267.485 220.467 266.418 219.8C265.418 219.133 263.418 218.367 260.418 217.5C256.685 216.433 253.551 215.4 251.018 214.4C248.551 213.333 246.518 212.2 244.918 211C243.385 209.8 242.285 208.467 241.618 207C240.951 205.533 240.618 203.8 240.618 201.8C240.618 199.133 241.151 196.667 242.218 194.4C243.285 192.133 244.751 190.167 246.618 188.5C248.551 186.833 250.818 185.567 253.418 184.7C256.085 183.767 258.985 183.3 262.118 183.3C265.985 183.3 269.651 183.8 273.118 184.8C276.651 185.8 280.185 187.833 283.718 190.9L276.518 202.3C273.251 200.167 270.518 198.667 268.318 197.8C266.118 196.867 264.051 196.4 262.118 196.4C260.985 196.4 260.051 196.633 259.318 197.1C258.585 197.5 258.218 198.167 258.218 199.1C258.218 200.1 258.751 200.933 259.818 201.6C260.885 202.2 262.985 202.9 266.118 203.7C269.918 204.7 273.118 205.767 275.718 206.9C278.318 207.967 280.385 209.167 281.918 210.5C283.518 211.767 284.651 213.233 285.318 214.9C285.985 216.5 286.318 218.367 286.318 220.5C286.318 223.233 285.818 225.667 284.818 227.8C283.818 229.933 282.351 231.767 280.418 233.3C278.551 234.833 276.251 236 273.518 236.8C270.851 237.6 267.818 238 264.418 238ZM296.616 207V165.3H315.616V207H296.616ZM296.616 237V218.6H315.616V237H296.616Z" fill="white"/>
</g>
<path d="M8.9 67.7C8.9 64.1 9.53333 60.6667 10.8 57.4C12.0667 54.0667 13.9 51.1667 16.3 48.7C18.7667 46.1667 21.8 44.1667 25.4 42.7C29 41.1667 33.1333 40.4 37.8 40.4C44.2 40.4 49.5333 41.7333 53.8 44.4C58.1333 47.0667 61.3667 50.5 63.5 54.7L45 60.3C43.2 57.7 40.7667 56.4 37.7 56.4C35.1 56.4 32.9 57.4 31.1 59.4C29.3 61.3333 28.4 64.1 28.4 67.7C28.4 71.3 29.3 74.1 31.1 76.1C32.9 78.0333 35.1 79 37.7 79C40.7667 79 43.2 77.7 45 75.1L63.5 80.7C61.3667 84.9 58.1333 88.3333 53.8 91C49.5333 93.6667 44.2 95 37.8 95C33.1333 95 29 94.2667 25.4 92.8C21.8 91.2667 18.7667 89.2667 16.3 86.8C13.9 84.2667 12.0667 81.3667 10.8 78.1C9.53333 74.7667 8.9 71.3 8.9 67.7ZM94.9266 95C90.1932 95 86.0266 94.2667 82.4266 92.8C78.8932 91.2667 75.8932 89.2667 73.4266 86.8C71.0266 84.2667 69.1932 81.3667 67.9266 78.1C66.7266 74.7667 66.1266 71.3 66.1266 67.7C66.1266 64.1 66.7266 60.6667 67.9266 57.4C69.1932 54.0667 71.0266 51.1667 73.4266 48.7C75.8932 46.1667 78.8932 44.1667 82.4266 42.7C86.0266 41.1667 90.1932 40.4 94.9266 40.4C99.5932 40.4 103.727 41.1667 107.327 42.7C110.927 44.1667 113.927 46.1667 116.327 48.7C118.793 51.1667 120.627 54.0667 121.827 57.4C123.093 60.6667 123.727 64.1 123.727 67.7C123.727 71.3 123.093 74.7667 121.827 78.1C120.627 81.3667 118.793 84.2667 116.327 86.8C113.927 89.2667 110.927 91.2667 107.327 92.8C103.727 94.2667 99.5932 95 94.9266 95ZM85.6266 67.7C85.6266 71.2333 86.4932 74 88.2266 76C89.9599 78 92.1932 79 94.9266 79C97.6599 79 99.8932 78 101.627 76C103.36 74 104.227 71.2333 104.227 67.7C104.227 64.1667 103.36 61.4 101.627 59.4C99.8932 57.4 97.6599 56.4 94.9266 56.4C92.1932 56.4 89.9599 57.4 88.2266 59.4C86.4932 61.4 85.6266 64.1667 85.6266 67.7ZM152.452 95C148.852 95 145.519 94.3333 142.452 93C139.452 91.6667 136.852 89.8 134.652 87.4C132.452 84.9333 130.719 82.0333 129.452 78.7C128.252 75.3 127.652 71.6 127.652 67.6C127.652 63.7333 128.219 60.1333 129.352 56.8C130.486 53.4667 132.052 50.6 134.052 48.2C136.119 45.7333 138.552 43.8333 141.352 42.5C144.152 41.1 147.252 40.4 150.652 40.4C154.052 40.4 157.152 41.1667 159.952 42.7C162.819 44.2333 165.019 46.4 166.552 49.2V21H185.552V73C185.552 74.8 185.819 76.0667 186.352 76.8C186.886 77.4667 187.819 77.8667 189.152 78V94C185.886 94.6667 183.219 95 181.152 95C174.686 95 170.952 92.5667 169.952 87.7L169.552 85.8C167.752 89 165.319 91.3333 162.252 92.8C159.186 94.2667 155.919 95 152.452 95ZM157.652 79C161.119 79 164.119 77.2 166.652 73.6V64.2C165.719 61.8667 164.352 60 162.552 58.6C160.752 57.1333 158.852 56.4 156.852 56.4C155.452 56.4 154.152 56.7 152.952 57.3C151.819 57.9 150.819 58.7333 149.952 59.8C149.152 60.8667 148.486 62.1 147.952 63.5C147.486 64.9 147.252 66.4 147.252 68C147.252 71.3333 148.186 74 150.052 76C151.986 78 154.519 79 157.652 79ZM222.856 95C218.256 95 214.156 94.3 210.556 92.9C206.956 91.4333 203.923 89.4667 201.456 87C199.056 84.5333 197.223 81.7 195.956 78.5C194.69 75.3 194.056 71.9333 194.056 68.4C194.056 64.6 194.656 61 195.856 57.6C197.123 54.2 198.956 51.2333 201.356 48.7C203.823 46.1667 206.823 44.1667 210.356 42.7C213.956 41.1667 218.123 40.4 222.856 40.4C227.523 40.4 231.656 41.1667 235.256 42.7C238.856 44.1667 241.856 46.1667 244.256 48.7C246.723 51.1667 248.556 54.0667 249.756 57.4C251.023 60.6667 251.656 64.1 251.656 67.7C251.656 68.7 251.59 69.7333 251.456 70.8C251.39 71.8 251.29 72.7 251.156 73.5H214.256C214.456 76.3 215.49 78.3333 217.356 79.6C219.223 80.8 221.256 81.4 223.456 81.4C225.523 81.4 227.456 80.9333 229.256 80C231.123 79.0667 232.356 77.7667 232.956 76.1L249.056 80.7C246.923 84.9 243.623 88.3333 239.156 91C234.756 93.6667 229.323 95 222.856 95ZM231.256 62.1C230.923 59.5667 229.99 57.5667 228.456 56.1C226.923 54.6333 224.956 53.9 222.556 53.9C220.156 53.9 218.19 54.6333 216.656 56.1C215.123 57.5667 214.19 59.5667 213.856 62.1H231.256Z" fill="white"/>
<path d="M148 155C144.6 155 141.467 154.333 138.6 153C135.8 151.6 133.4 149.733 131.4 147.4C129.4 145 127.833 142.2 126.7 139C125.633 135.8 125.1 132.333 125.1 128.6C125.1 124.667 125.7 121.033 126.9 117.7C128.1 114.367 129.767 111.5 131.9 109.1C134.1 106.7 136.7 104.833 139.7 103.5C142.7 102.1 146 101.4 149.6 101.4C153.4 101.4 156.733 102.167 159.6 103.7C162.467 105.167 164.733 107.333 166.4 110.2V102.4H182.9V150.2C182.9 154.333 182.133 158.067 180.6 161.4C179.067 164.733 176.9 167.567 174.1 169.9C171.3 172.233 167.933 174.033 164 175.3C160.067 176.633 155.7 177.3 150.9 177.3C145.3 177.3 140.433 176.433 136.3 174.7C132.167 172.967 128.5 170.467 125.3 167.2L135.3 156.8C137.233 158.6 139.533 160.1 142.2 161.3C144.933 162.567 147.833 163.2 150.9 163.2C152.633 163.2 154.267 162.967 155.8 162.5C157.4 162.033 158.8 161.267 160 160.2C161.2 159.2 162.133 157.867 162.8 156.2C163.533 154.533 163.9 152.533 163.9 150.2V146.8C162.367 149.6 160.167 151.667 157.3 153C154.5 154.333 151.4 155 148 155ZM154.8 140C156.733 140 158.4 139.567 159.8 138.7C161.267 137.767 162.633 136.4 163.9 134.6V125.2C162.967 122.8 161.567 120.9 159.7 119.5C157.9 118.1 156 117.4 154 117.4C152.667 117.4 151.4 117.733 150.2 118.4C149.067 119 148.067 119.833 147.2 120.9C146.333 121.9 145.667 123.133 145.2 124.6C144.733 126 144.5 127.5 144.5 129.1C144.5 132.367 145.467 135 147.4 137C149.333 139 151.8 140 154.8 140ZM228.246 118.6C224.579 118.6 221.246 119 218.246 119.8C215.246 120.6 213.013 121.933 211.546 123.8V155H192.546V102.4H209.946V112.4C211.813 108.867 214.113 106.167 216.846 104.3C219.646 102.367 222.646 101.4 225.846 101.4C227.113 101.4 227.913 101.433 228.246 101.5V118.6ZM260.048 156C255.448 156 251.348 155.3 247.748 153.9C244.148 152.433 241.114 150.467 238.648 148C236.248 145.533 234.414 142.7 233.148 139.5C231.881 136.3 231.248 132.933 231.248 129.4C231.248 125.6 231.848 122 233.048 118.6C234.314 115.2 236.148 112.233 238.548 109.7C241.014 107.167 244.014 105.167 247.548 103.7C251.148 102.167 255.314 101.4 260.048 101.4C264.714 101.4 268.848 102.167 272.448 103.7C276.048 105.167 279.048 107.167 281.448 109.7C283.914 112.167 285.748 115.067 286.948 118.4C288.214 121.667 288.848 125.1 288.848 128.7C288.848 129.7 288.781 130.733 288.648 131.8C288.581 132.8 288.481 133.7 288.348 134.5H251.448C251.648 137.3 252.681 139.333 254.548 140.6C256.414 141.8 258.448 142.4 260.648 142.4C262.714 142.4 264.648 141.933 266.448 141C268.314 140.067 269.548 138.767 270.148 137.1L286.248 141.7C284.114 145.9 280.814 149.333 276.348 152C271.948 154.667 266.514 156 260.048 156ZM268.448 123.1C268.114 120.567 267.181 118.567 265.648 117.1C264.114 115.633 262.148 114.9 259.748 114.9C257.348 114.9 255.381 115.633 253.848 117.1C252.314 118.567 251.381 120.567 251.048 123.1H268.448ZM310.585 156C307.985 156 305.552 155.567 303.285 154.7C301.018 153.833 299.052 152.667 297.385 151.2C295.785 149.667 294.518 147.867 293.585 145.8C292.652 143.733 292.185 141.5 292.185 139.1C292.185 136.433 292.752 134 293.885 131.8C295.018 129.6 296.585 127.7 298.585 126.1C300.585 124.5 302.952 123.267 305.685 122.4C308.485 121.533 311.552 121.1 314.885 121.1C319.152 121.1 322.685 121.767 325.485 123.1V121.5C325.485 119.033 324.752 117.2 323.285 116C321.885 114.8 319.585 114.2 316.385 114.2C313.385 114.2 310.618 114.7 308.085 115.7C305.552 116.633 302.885 118.033 300.085 119.9L294.585 108.1C301.518 103.633 309.418 101.4 318.285 101.4C326.685 101.4 333.152 103.267 337.685 107C342.218 110.733 344.485 116.333 344.485 123.8V134C344.485 135.8 344.752 137.067 345.285 137.8C345.818 138.467 346.752 138.867 348.085 139V155C346.552 155.333 345.085 155.567 343.685 155.7C342.352 155.9 341.152 156 340.085 156C336.685 156 334.085 155.4 332.285 154.2C330.552 152.933 329.418 151.1 328.885 148.7L328.485 146.8C326.152 149.8 323.452 152.1 320.385 153.7C317.318 155.233 314.052 156 310.585 156ZM316.285 142.4C317.418 142.4 318.585 142.233 319.785 141.9C320.985 141.5 322.052 141 322.985 140.4C323.718 139.867 324.318 139.3 324.785 138.7C325.252 138.033 325.485 137.367 325.485 136.7V132.8C324.352 132.4 323.118 132.067 321.785 131.8C320.452 131.533 319.252 131.4 318.185 131.4C315.852 131.4 313.918 131.967 312.385 133.1C310.852 134.233 310.085 135.667 310.085 137.4C310.085 138.867 310.652 140.067 311.785 141C312.985 141.933 314.485 142.4 316.285 142.4ZM391.263 152.1C388.596 153.233 385.729 154.2 382.663 155C379.663 155.733 376.696 156.1 373.763 156.1C371.629 156.1 369.596 155.833 367.663 155.3C365.729 154.767 364.029 153.9 362.563 152.7C361.163 151.5 360.029 149.933 359.163 148C358.363 146.067 357.963 143.667 357.963 140.8V116.7H351.463V102.4H357.963V85.9H376.963V102.4H387.263V116.7H376.963V134.1C376.963 135.833 377.329 137.067 378.063 137.8C378.796 138.467 379.796 138.8 381.063 138.8C381.996 138.8 383.063 138.667 384.263 138.4C385.463 138.067 386.663 137.633 387.863 137.1L391.263 152.1Z" fill="#84D346"/>
<path d="M26.8 237V184.4H45.8V237H26.8ZM26.8 180V164H45.8V180H26.8ZM77.4133 238C73.8133 238 70.4799 237.333 67.4133 236C64.4133 234.667 61.8133 232.8 59.6133 230.4C57.4133 227.933 55.6799 225.033 54.4133 221.7C53.2133 218.3 52.6133 214.6 52.6133 210.6C52.6133 206.733 53.1799 203.133 54.3133 199.8C55.4466 196.467 57.0133 193.6 59.0133 191.2C61.0799 188.733 63.5133 186.833 66.3133 185.5C69.1133 184.1 72.2133 183.4 75.6133 183.4C79.0133 183.4 82.1133 184.167 84.9133 185.7C87.7799 187.233 89.9799 189.4 91.5133 192.2V164H110.513V216C110.513 217.8 110.78 219.067 111.313 219.8C111.847 220.467 112.78 220.867 114.113 221V237C110.847 237.667 108.18 238 106.113 238C99.6466 238 95.9133 235.567 94.9133 230.7L94.5133 228.8C92.7133 232 90.28 234.333 87.2133 235.8C84.1466 237.267 80.8799 238 77.4133 238ZM82.6133 222C86.0799 222 89.0799 220.2 91.6133 216.6V207.2C90.68 204.867 89.3133 203 87.5133 201.6C85.7133 200.133 83.8133 199.4 81.8133 199.4C80.4133 199.4 79.1133 199.7 77.9133 200.3C76.7799 200.9 75.7799 201.733 74.9133 202.8C74.1133 203.867 73.4466 205.1 72.9133 206.5C72.4466 207.9 72.2133 209.4 72.2133 211C72.2133 214.333 73.1466 217 75.0133 219C76.9466 221 79.4799 222 82.6133 222ZM147.817 238C143.217 238 139.117 237.3 135.517 235.9C131.917 234.433 128.884 232.467 126.417 230C124.017 227.533 122.184 224.7 120.917 221.5C119.651 218.3 119.017 214.933 119.017 211.4C119.017 207.6 119.617 204 120.817 200.6C122.084 197.2 123.917 194.233 126.317 191.7C128.784 189.167 131.784 187.167 135.317 185.7C138.917 184.167 143.084 183.4 147.817 183.4C152.484 183.4 156.617 184.167 160.217 185.7C163.817 187.167 166.817 189.167 169.217 191.7C171.684 194.167 173.517 197.067 174.717 200.4C175.984 203.667 176.617 207.1 176.617 210.7C176.617 211.7 176.551 212.733 176.417 213.8C176.351 214.8 176.251 215.7 176.117 216.5H139.217C139.417 219.3 140.451 221.333 142.317 222.6C144.184 223.8 146.217 224.4 148.417 224.4C150.484 224.4 152.417 223.933 154.217 223C156.084 222.067 157.317 220.767 157.917 219.1L174.017 223.7C171.884 227.9 168.584 231.333 164.117 234C159.717 236.667 154.284 238 147.817 238ZM156.217 205.1C155.884 202.567 154.951 200.567 153.417 199.1C151.884 197.633 149.917 196.9 147.517 196.9C145.117 196.9 143.151 197.633 141.617 199.1C140.084 200.567 139.151 202.567 138.817 205.1H156.217ZM198.355 238C195.755 238 193.321 237.567 191.055 236.7C188.788 235.833 186.821 234.667 185.155 233.2C183.555 231.667 182.288 229.867 181.355 227.8C180.421 225.733 179.955 223.5 179.955 221.1C179.955 218.433 180.521 216 181.655 213.8C182.788 211.6 184.355 209.7 186.355 208.1C188.355 206.5 190.721 205.267 193.455 204.4C196.255 203.533 199.321 203.1 202.655 203.1C206.921 203.1 210.455 203.767 213.255 205.1V203.5C213.255 201.033 212.521 199.2 211.055 198C209.655 196.8 207.355 196.2 204.155 196.2C201.155 196.2 198.388 196.7 195.855 197.7C193.321 198.633 190.655 200.033 187.855 201.9L182.355 190.1C189.288 185.633 197.188 183.4 206.055 183.4C214.455 183.4 220.921 185.267 225.455 189C229.988 192.733 232.255 198.333 232.255 205.8V216C232.255 217.8 232.521 219.067 233.055 219.8C233.588 220.467 234.521 220.867 235.855 221V237C234.321 237.333 232.855 237.567 231.455 237.7C230.121 237.9 228.921 238 227.855 238C224.455 238 221.855 237.4 220.055 236.2C218.321 234.933 217.188 233.1 216.655 230.7L216.255 228.8C213.921 231.8 211.221 234.1 208.155 235.7C205.088 237.233 201.821 238 198.355 238ZM204.055 224.4C205.188 224.4 206.355 224.233 207.555 223.9C208.755 223.5 209.821 223 210.755 222.4C211.488 221.867 212.088 221.3 212.555 220.7C213.021 220.033 213.255 219.367 213.255 218.7V214.8C212.121 214.4 210.888 214.067 209.555 213.8C208.221 213.533 207.021 213.4 205.955 213.4C203.621 213.4 201.688 213.967 200.155 215.1C198.621 216.233 197.855 217.667 197.855 219.4C197.855 220.867 198.421 222.067 199.555 223C200.755 223.933 202.255 224.4 204.055 224.4ZM264.418 238C259.818 238 255.318 237.267 250.918 235.8C246.518 234.267 242.785 232.067 239.718 229.2L246.218 217.8C249.485 220 252.618 221.7 255.618 222.9C258.685 224.1 261.485 224.7 264.018 224.7C266.685 224.7 268.018 223.867 268.018 222.2C268.018 221.267 267.485 220.467 266.418 219.8C265.418 219.133 263.418 218.367 260.418 217.5C256.685 216.433 253.551 215.4 251.018 214.4C248.551 213.333 246.518 212.2 244.918 211C243.385 209.8 242.285 208.467 241.618 207C240.951 205.533 240.618 203.8 240.618 201.8C240.618 199.133 241.151 196.667 242.218 194.4C243.285 192.133 244.751 190.167 246.618 188.5C248.551 186.833 250.818 185.567 253.418 184.7C256.085 183.767 258.985 183.3 262.118 183.3C265.985 183.3 269.651 183.8 273.118 184.8C276.651 185.8 280.185 187.833 283.718 190.9L276.518 202.3C273.251 200.167 270.518 198.667 268.318 197.8C266.118 196.867 264.051 196.4 262.118 196.4C260.985 196.4 260.051 196.633 259.318 197.1C258.585 197.5 258.218 198.167 258.218 199.1C258.218 200.1 258.751 200.933 259.818 201.6C260.885 202.2 262.985 202.9 266.118 203.7C269.918 204.7 273.118 205.767 275.718 206.9C278.318 207.967 280.385 209.167 281.918 210.5C283.518 211.767 284.651 213.233 285.318 214.9C285.985 216.5 286.318 218.367 286.318 220.5C286.318 223.233 285.818 225.667 284.818 227.8C283.818 229.933 282.351 231.767 280.418 233.3C278.551 234.833 276.251 236 273.518 236.8C270.851 237.6 267.818 238 264.418 238ZM296.616 207V165.3H315.616V207H296.616ZM296.616 237V218.6H315.616V237H296.616Z" fill="white"/>
<path d="M10.24 373.32V371.88C10.24 371.587 10.3867 371.44 10.68 371.44H11.84C12.1333 371.44 12.28 371.587 12.28 371.88V373.2C12.28 375.867 13.5733 377.2 16.16 377.2H20.32C22.9067 377.2 24.2 375.853 24.2 373.16V371.48C24.2 370.307 23.72 369.387 22.76 368.72C21.8 368.053 20.64 367.573 19.28 367.28C17.92 366.987 16.5467 366.68 15.16 366.36C13.8 366.04 12.64 365.453 11.68 364.6C10.72 363.747 10.24 362.6 10.24 361.16V358.96C10.24 357.2 10.7467 355.813 11.76 354.8C12.7733 353.787 14.1467 353.28 15.88 353.28H20.52C22.2533 353.28 23.6267 353.787 24.64 354.8C25.6533 355.813 26.16 357.2 26.16 358.96V360.08C26.16 360.373 26.0133 360.52 25.72 360.52H24.56C24.2667 360.52 24.12 360.373 24.12 360.08V359.08C24.12 356.413 22.8267 355.08 20.24 355.08H16.12C13.56 355.08 12.28 356.44 12.28 359.16V361.16C12.28 363 13.92 364.24 17.2 364.88C18.56 365.147 19.92 365.453 21.28 365.8C22.6667 366.147 23.84 366.773 24.8 367.68C25.76 368.587 26.24 369.813 26.24 371.36V373.32C26.24 375.08 25.7333 376.467 24.72 377.48C23.7067 378.493 22.3333 379 20.6 379H15.88C14.1467 379 12.7733 378.493 11.76 377.48C10.7467 376.467 10.24 375.08 10.24 373.32ZM35.0609 353.76V378.52C35.0609 378.84 34.9143 379 34.6209 379H33.4609C33.1943 379 33.0609 378.84 33.0609 378.52V353.76C33.0609 353.44 33.1943 353.28 33.4609 353.28H34.6209C34.9143 353.28 35.0609 353.44 35.0609 353.76ZM47.6797 379H46.5197C46.2264 379 46.0797 378.84 46.0797 378.52V355.44C46.0797 355.2 45.9464 355.08 45.6797 355.08H39.8797C39.5597 355.08 39.3997 354.933 39.3997 354.64V353.72C39.3997 353.427 39.5597 353.28 39.8797 353.28H54.2797C54.5997 353.28 54.7597 353.427 54.7597 353.72V354.64C54.7597 354.933 54.5997 355.08 54.2797 355.08H48.4797C48.213 355.08 48.0797 355.2 48.0797 355.44V378.52C48.0797 378.84 47.9464 379 47.6797 379ZM71.6366 379H59.2766C59.0099 379 58.8766 378.84 58.8766 378.52V353.76C58.8766 353.44 59.0099 353.28 59.2766 353.28H71.6366C71.9566 353.28 72.1166 353.427 72.1166 353.72V354.64C72.1166 354.933 71.9566 355.08 71.6366 355.08H61.2766C61.0099 355.08 60.8766 355.2 60.8766 355.44V364.64C60.8766 364.88 61.0099 365 61.2766 365H70.5166C70.8099 365 70.9566 365.147 70.9566 365.44V366.36C70.9566 366.653 70.8099 366.8 70.5166 366.8H61.2766C61.0099 366.8 60.8766 366.92 60.8766 367.16V376.84C60.8766 377.08 61.0099 377.2 61.2766 377.2H71.6366C71.9566 377.2 72.1166 377.347 72.1166 377.64V378.56C72.1166 378.853 71.9566 379 71.6366 379ZM101.558 379H89.1984C88.9318 379 88.7984 378.84 88.7984 378.52V353.76C88.7984 353.44 88.9318 353.28 89.1984 353.28H101.558C101.878 353.28 102.038 353.427 102.038 353.72V354.64C102.038 354.933 101.878 355.08 101.558 355.08H91.1984C90.9318 355.08 90.7984 355.2 90.7984 355.44V364.64C90.7984 364.88 90.9318 365 91.1984 365H100.438C100.732 365 100.878 365.147 100.878 365.44V366.36C100.878 366.653 100.732 366.8 100.438 366.8H91.1984C90.9318 366.8 90.7984 366.92 90.7984 367.16V376.84C90.7984 377.08 90.9318 377.2 91.1984 377.2H101.558C101.878 377.2 102.038 377.347 102.038 377.64V378.56C102.038 378.853 101.878 379 101.558 379ZM126.536 353.28H128.696C128.963 353.28 129.096 353.44 129.096 353.76V378.52C129.096 378.84 128.963 379 128.696 379H127.536C127.243 379 127.096 378.84 127.096 378.52V356.36H126.936L119.856 372.96C119.696 373.253 119.496 373.4 119.256 373.4H117.936C117.67 373.4 117.483 373.253 117.376 372.96L110.176 356.32H110.016V378.52C110.016 378.84 109.883 379 109.616 379H108.456C108.19 379 108.056 378.84 108.056 378.52V353.76C108.056 353.44 108.19 353.28 108.456 353.28H110.616C110.803 353.28 110.923 353.36 110.976 353.52L118.496 371.08H118.656L126.176 353.52C126.23 353.36 126.35 353.28 126.536 353.28ZM156.812 379H151.772C150.039 379 148.665 378.493 147.652 377.48C146.665 376.467 146.172 375.08 146.172 373.32V358.96C146.172 357.2 146.665 355.813 147.652 354.8C148.665 353.787 150.039 353.28 151.772 353.28H156.812C158.545 353.28 159.905 353.787 160.892 354.8C161.905 355.813 162.412 357.2 162.412 358.96V360.92C162.412 361.24 162.265 361.4 161.972 361.4H160.852C160.559 361.4 160.412 361.24 160.412 360.92V359.04C160.412 357.76 160.079 356.787 159.412 356.12C158.772 355.427 157.839 355.08 156.612 355.08H151.932C150.705 355.08 149.772 355.427 149.132 356.12C148.492 356.813 148.172 357.787 148.172 359.04V373.24C148.172 374.493 148.492 375.467 149.132 376.16C149.772 376.853 150.705 377.2 151.932 377.2H156.612C157.839 377.2 158.772 376.867 159.412 376.2C160.079 375.507 160.412 374.52 160.412 373.24V371.36C160.412 371.04 160.559 370.88 160.852 370.88H161.972C162.265 370.88 162.412 371.04 162.412 371.36V373.32C162.412 375.08 161.905 376.467 160.892 377.48C159.905 378.493 158.545 379 156.812 379ZM173.612 377.2H178.172C179.398 377.2 180.332 376.867 180.972 376.2C181.638 375.507 181.972 374.52 181.972 373.24V359.04C181.972 357.76 181.638 356.787 180.972 356.12C180.332 355.427 179.398 355.08 178.172 355.08H173.612C172.385 355.08 171.452 355.427 170.812 356.12C170.172 356.813 169.852 357.787 169.852 359.04V373.24C169.852 374.493 170.172 375.467 170.812 376.16C171.452 376.853 172.385 377.2 173.612 377.2ZM178.372 379H173.452C171.718 379 170.345 378.493 169.332 377.48C168.345 376.467 167.852 375.08 167.852 373.32V358.96C167.852 357.2 168.345 355.813 169.332 354.8C170.345 353.787 171.718 353.28 173.452 353.28H178.372C180.105 353.28 181.465 353.787 182.452 354.8C183.465 355.813 183.972 357.2 183.972 358.96V373.32C183.972 375.08 183.465 376.467 182.452 377.48C181.465 378.493 180.105 379 178.372 379ZM191.921 379H190.761C190.494 379 190.361 378.84 190.361 378.52V353.76C190.361 353.44 190.494 353.28 190.761 353.28H191.841C192.081 353.28 192.241 353.36 192.321 353.52L204.601 374.64H204.761V353.76C204.761 353.44 204.908 353.28 205.201 353.28H206.321C206.614 353.28 206.761 353.44 206.761 353.76V378.52C206.761 378.84 206.614 379 206.321 379H205.401C205.161 379 204.948 378.853 204.761 378.56L192.521 357.6H192.361V378.52C192.361 378.84 192.214 379 191.921 379ZM213.365 373.32V371.88C213.365 371.587 213.512 371.44 213.805 371.44H214.965C215.258 371.44 215.405 371.587 215.405 371.88V373.2C215.405 375.867 216.698 377.2 219.285 377.2H223.445C226.032 377.2 227.325 375.853 227.325 373.16V371.48C227.325 370.307 226.845 369.387 225.885 368.72C224.925 368.053 223.765 367.573 222.405 367.28C221.045 366.987 219.672 366.68 218.285 366.36C216.925 366.04 215.765 365.453 214.805 364.6C213.845 363.747 213.365 362.6 213.365 361.16V358.96C213.365 357.2 213.872 355.813 214.885 354.8C215.898 353.787 217.272 353.28 219.005 353.28H223.645C225.378 353.28 226.752 353.787 227.765 354.8C228.778 355.813 229.285 357.2 229.285 358.96V360.08C229.285 360.373 229.138 360.52 228.845 360.52H227.685C227.392 360.52 227.245 360.373 227.245 360.08V359.08C227.245 356.413 225.952 355.08 223.365 355.08H219.245C216.685 355.08 215.405 356.44 215.405 359.16V361.16C215.405 363 217.045 364.24 220.325 364.88C221.685 365.147 223.045 365.453 224.405 365.8C225.792 366.147 226.965 366.773 227.925 367.68C228.885 368.587 229.365 369.813 229.365 371.36V373.32C229.365 375.08 228.858 376.467 227.845 377.48C226.832 378.493 225.458 379 223.725 379H219.005C217.272 379 215.898 378.493 214.885 377.48C213.872 376.467 213.365 375.08 213.365 373.32ZM241.586 379H240.426C240.133 379 239.986 378.84 239.986 378.52V355.44C239.986 355.2 239.853 355.08 239.586 355.08H233.786C233.466 355.08 233.306 354.933 233.306 354.64V353.72C233.306 353.427 233.466 353.28 233.786 353.28H248.186C248.506 353.28 248.666 353.427 248.666 353.72V354.64C248.666 354.933 248.506 355.08 248.186 355.08H242.386C242.119 355.08 241.986 355.2 241.986 355.44V378.52C241.986 378.84 241.853 379 241.586 379ZM254.343 379H253.183C252.916 379 252.783 378.84 252.783 378.52V353.76C252.783 353.44 252.916 353.28 253.183 353.28H262.303C264.036 353.28 265.409 353.787 266.423 354.8C267.436 355.813 267.943 357.2 267.943 358.96V362.76C267.943 364.253 267.556 365.48 266.783 366.44C266.036 367.4 265.009 368.013 263.703 368.28V368.44L268.463 378.52C268.623 378.84 268.529 379 268.183 379H266.943C266.596 379 266.356 378.84 266.223 378.52L261.503 368.44H255.183C254.916 368.44 254.783 368.56 254.783 368.8V378.52C254.783 378.84 254.636 379 254.343 379ZM255.183 366.72H262.103C263.329 366.72 264.276 366.387 264.943 365.72C265.609 365.027 265.943 364.053 265.943 362.8V359.04C265.943 357.787 265.609 356.813 264.943 356.12C264.276 355.427 263.329 355.08 262.103 355.08H255.183C254.916 355.08 254.783 355.2 254.783 355.44V366.36C254.783 366.6 254.916 366.72 255.183 366.72ZM288.07 353.28H289.19C289.483 353.28 289.63 353.427 289.63 353.72V373.32C289.63 375.08 289.123 376.467 288.11 377.48C287.123 378.493 285.763 379 284.03 379H279.55C277.817 379 276.443 378.493 275.43 377.48C274.443 376.467 273.95 375.08 273.95 373.32V353.76C273.95 353.44 274.083 353.28 274.35 353.28H275.51C275.803 353.28 275.95 353.44 275.95 353.76V373.24C275.95 374.493 276.27 375.467 276.91 376.16C277.55 376.853 278.483 377.2 279.71 377.2H283.83C285.057 377.2 285.99 376.867 286.63 376.2C287.297 375.507 287.63 374.52 287.63 373.24V353.76C287.63 353.44 287.777 353.28 288.07 353.28ZM311.62 361.4H310.5C310.207 361.4 310.06 361.24 310.06 360.92V359.04C310.06 357.76 309.727 356.787 309.06 356.12C308.42 355.427 307.487 355.08 306.26 355.08H301.58C300.354 355.08 299.42 355.427 298.78 356.12C298.14 356.813 297.82 357.787 297.82 359.04V373.24C297.82 374.493 298.14 375.467 298.78 376.16C299.42 376.853 300.354 377.2 301.58 377.2H306.26C307.487 377.2 308.42 376.867 309.06 376.2C309.727 375.507 310.06 374.52 310.06 373.24V371.36C310.06 371.04 310.207 370.88 310.5 370.88H311.62C311.914 370.88 312.06 371.04 312.06 371.36V373.32C312.06 375.08 311.554 376.467 310.54 377.48C309.554 378.493 308.194 379 306.46 379H305.66L303.82 380.92V381.08C304.887 381.08 305.674 381.267 306.18 381.64C306.687 382.013 306.94 382.64 306.94 383.52V384C306.94 385.6 305.847 386.4 303.66 386.4H302.66C302.394 386.4 302.26 386.253 302.26 385.96V385.48C302.26 385.213 302.394 385.08 302.66 385.08H303.46C304.234 385.08 304.78 384.987 305.1 384.8C305.42 384.613 305.58 384.28 305.58 383.8V383.72C305.58 383.213 305.42 382.867 305.1 382.68C304.807 382.493 304.26 382.4 303.46 382.4H302.98C302.5 382.4 302.18 382.213 302.02 381.84C301.887 381.493 301.98 381.147 302.3 380.8L303.94 379H301.42C299.687 379 298.314 378.493 297.3 377.48C296.314 376.467 295.82 375.08 295.82 373.32V358.96C295.82 357.2 296.314 355.813 297.3 354.8C298.314 353.787 299.687 353.28 301.42 353.28H306.46C308.194 353.28 309.554 353.787 310.54 354.8C311.554 355.813 312.06 357.2 312.06 358.96V360.92C312.06 361.24 311.914 361.4 311.62 361.4ZM325.62 348.8C325.353 349.627 325.033 350.187 324.66 350.48C324.313 350.773 323.767 350.92 323.02 350.92C322.273 350.92 321.727 350.68 321.38 350.2C321.06 349.693 320.9 348.893 320.9 347.8V346.24C320.9 346 321.007 345.88 321.22 345.88H321.78C322.02 345.88 322.14 346 322.14 346.24V347.56C322.14 348.387 322.207 348.947 322.34 349.24C322.5 349.533 322.78 349.68 323.18 349.68C323.58 349.68 323.86 349.56 324.02 349.32C324.207 349.08 324.447 348.56 324.74 347.76C325.06 346.933 325.367 346.4 325.66 346.16C325.98 345.893 326.513 345.76 327.26 345.76C328.033 345.76 328.58 346.013 328.9 346.52C329.247 347 329.42 347.773 329.42 348.84V350.48C329.42 350.747 329.313 350.88 329.1 350.88H328.54C328.3 350.88 328.18 350.747 328.18 350.48V349.12C328.18 348.267 328.1 347.693 327.94 347.4C327.807 347.107 327.527 346.96 327.1 346.96C326.7 346.96 326.42 347.067 326.26 347.28C326.127 347.467 325.913 347.973 325.62 348.8ZM317.22 379H315.98C315.687 379 315.593 378.84 315.7 378.52L323.66 353.76C323.74 353.44 323.927 353.28 324.22 353.28H326.1C326.367 353.28 326.553 353.44 326.66 353.76L334.62 378.52C334.7 378.84 334.607 379 334.34 379H333.06C332.793 379 332.62 378.84 332.54 378.52L330.38 372.12H319.9L317.74 378.52C317.633 378.84 317.46 379 317.22 379ZM325.06 355.48L320.46 370.32H329.86L325.22 355.48H325.06ZM344.549 377.2H349.109C350.336 377.2 351.269 376.867 351.909 376.2C352.576 375.507 352.909 374.52 352.909 373.24V359.04C352.909 357.76 352.576 356.787 351.909 356.12C351.269 355.427 350.336 355.08 349.109 355.08H344.549C343.322 355.08 342.389 355.427 341.749 356.12C341.109 356.813 340.789 357.787 340.789 359.04V373.24C340.789 374.493 341.109 375.467 341.749 376.16C342.389 376.853 343.322 377.2 344.549 377.2ZM349.309 379H344.389C342.656 379 341.282 378.493 340.269 377.48C339.282 376.467 338.789 375.08 338.789 373.32V358.96C338.789 357.2 339.282 355.813 340.269 354.8C341.282 353.787 342.656 353.28 344.389 353.28H349.309C351.042 353.28 352.402 353.787 353.389 354.8C354.402 355.813 354.909 357.2 354.909 358.96V373.32C354.909 375.08 354.402 376.467 353.389 377.48C352.402 378.493 351.042 379 349.309 379Z" fill="white"/>
<defs>
<filter id="filter0_f" x="0.900002" y="13" width="398.363" height="233" filterUnits="userSpaceOnUse" color-interpolation-filters="sRGB">
<feFlood flood-opacity="0" result="BackgroundImageFix"/>
<feBlend mode="normal" in="SourceGraphic" in2="BackgroundImageFix" result="shape"/>
<feGaussianBlur stdDeviation="4" result="effect1_foregroundBlur"/>
</filter>
</defs>
</svg>
