<svg width="379" height="527" viewBox="0 0 379 527" fill="none" xmlns="http://www.w3.org/2000/svg">
<path d="M72.0575 345.348L47.2877 349.706L65.3021 381.299L131.73 413.982L209.417 421.608L294.986 395.462L350.155 327.918L328.763 321.381L320.881 345.348H302.867L292.734 356.243H263.46L248.824 345.348L225.18 349.706L209.417 345.348L189.151 327.918L179.018 339.901L155.374 349.706L131.73 345.348L119.345 356.243H93.4496L87.8201 359.511L72.0575 345.348Z" fill="#43840F"/>
<path d="M83.3163 349.705C83.3163 357.527 76.7632 363.868 68.6796 363.868C60.596 363.868 54.0429 357.527 54.0429 349.705C54.0429 341.883 60.596 335.542 68.6796 335.542C76.7632 335.542 83.3163 341.883 83.3163 349.705Z" fill="#43840F"/>
<path d="M103.583 360.602C103.583 368.424 97.0296 374.765 88.946 374.765C80.8624 374.765 74.3093 368.424 74.3093 360.602C74.3093 352.78 80.8624 346.44 88.946 346.44C97.0296 346.44 103.583 352.78 103.583 360.602Z" fill="#43840F"/>
<path d="M126.101 360.602C126.101 368.424 119.548 374.765 111.464 374.765C103.38 374.765 96.8274 368.424 96.8274 360.602C96.8274 352.78 103.38 346.44 111.464 346.44C119.548 346.44 126.101 352.78 126.101 360.602Z" fill="#43840F"/>
<path d="M148.619 347.528C148.619 355.35 142.065 361.691 133.982 361.691C125.898 361.691 119.345 355.35 119.345 347.528C119.345 339.707 125.898 333.366 133.982 333.366C142.065 333.366 148.619 339.707 148.619 347.528Z" fill="#43840F"/>
<path d="M171.136 351.882C171.136 359.704 164.583 366.044 156.5 366.044C148.416 366.044 141.863 359.704 141.863 351.882C141.863 344.06 148.416 337.719 156.5 337.719C164.583 337.719 171.136 344.06 171.136 351.882Z" fill="#43840F"/>
<path d="M193.654 349.705C193.654 357.527 187.101 363.868 179.018 363.868C170.934 363.868 164.381 357.527 164.381 349.705C164.381 341.883 170.934 335.542 179.018 335.542C187.101 335.542 193.654 341.883 193.654 349.705Z" fill="#43840F"/>
<path d="M207.165 332.278C207.165 340.099 200.612 346.44 192.529 346.44C184.445 346.44 177.892 340.099 177.892 332.278C177.892 324.456 184.445 318.115 192.529 318.115C200.612 318.115 207.165 324.456 207.165 332.278Z" fill="#43840F"/>
<path d="M225.18 347.528C225.18 355.35 218.627 361.691 210.543 361.691C202.459 361.691 195.906 355.35 195.906 347.528C195.906 339.707 202.459 333.366 210.543 333.366C218.627 333.366 225.18 339.707 225.18 347.528Z" fill="#43840F"/>
<path d="M243.194 354.065C243.194 361.887 236.641 368.227 228.557 368.227C220.474 368.227 213.921 361.887 213.921 354.065C213.921 346.243 220.474 339.902 228.557 339.902C236.641 339.902 243.194 346.243 243.194 354.065Z" fill="#43840F"/>
<path d="M261.208 349.705C261.208 357.527 254.655 363.868 246.572 363.868C238.488 363.868 231.935 357.527 231.935 349.705C231.935 341.883 238.488 335.542 246.572 335.542C254.655 335.542 261.208 341.883 261.208 349.705Z" fill="#43840F"/>
<path d="M283.727 358.419C283.727 366.24 277.173 372.581 269.09 372.581C261.006 372.581 254.453 366.24 254.453 358.419C254.453 350.597 261.006 344.256 269.09 344.256C277.173 344.256 283.727 350.597 283.727 358.419Z" fill="#43840F"/>
<path d="M306.244 360.602C306.244 368.424 299.691 374.765 291.608 374.765C283.524 374.765 276.971 368.424 276.971 360.602C276.971 352.78 283.524 346.44 291.608 346.44C299.691 346.44 306.244 352.78 306.244 360.602Z" fill="#43840F"/>
<path d="M324.259 349.705C324.259 357.527 317.706 363.868 309.622 363.868C301.539 363.868 294.986 357.527 294.986 349.705C294.986 341.883 301.539 335.542 309.622 335.542C317.706 335.542 324.259 341.883 324.259 349.705Z" fill="#43840F"/>
<path d="M346.777 343.168C346.777 350.99 340.224 357.331 332.14 357.331C324.057 357.331 317.504 350.99 317.504 343.168C317.504 335.346 324.057 329.006 332.14 329.006C340.224 329.006 346.777 335.346 346.777 343.168Z" fill="#43840F"/>
<path d="M346.777 323.558C346.777 331.379 340.224 337.72 332.14 337.72C324.057 337.72 317.504 331.379 317.504 323.558C317.504 315.736 324.057 309.395 332.14 309.395C340.224 309.395 346.777 315.736 346.777 323.558Z" fill="#43840F"/>
<path d="M128.353 373.674C128.353 381.496 121.799 387.837 113.716 387.837C105.632 387.837 99.0791 381.496 99.0791 373.674C99.0791 365.852 105.632 359.512 113.716 359.512C121.799 359.512 128.353 365.852 128.353 373.674Z" fill="#6BAC38"/>
<path d="M108.086 382.388C108.086 390.209 101.533 396.55 93.4494 396.55C85.3658 396.55 78.8127 390.209 78.8127 382.388C78.8127 374.566 85.3658 368.225 93.4494 368.225C101.533 368.225 108.086 374.566 108.086 382.388Z" fill="#6BAC38"/>
<path d="M128.353 395.461C128.353 403.283 121.799 409.624 113.716 409.624C105.632 409.624 99.0791 403.283 99.0791 395.461C99.0791 387.64 105.632 381.299 113.716 381.299C121.799 381.299 128.353 387.64 128.353 395.461Z" fill="#6BAC38"/>
<path d="M148.619 382.388C148.619 390.209 142.065 396.55 133.982 396.55C125.898 396.55 119.345 390.209 119.345 382.388C119.345 374.566 125.898 368.225 133.982 368.225C142.065 368.225 148.619 374.566 148.619 382.388Z" fill="#6BAC38"/>
<path d="M168.885 369.314C168.885 377.136 162.331 383.476 154.248 383.476C146.164 383.476 139.611 377.136 139.611 369.314C139.611 361.492 146.164 355.151 154.248 355.151C162.331 355.151 168.885 361.492 168.885 369.314Z" fill="#6BAC38"/>
<path d="M168.885 388.924C168.885 396.746 162.331 403.087 154.248 403.087C146.164 403.087 139.611 396.746 139.611 388.924C139.611 381.103 146.164 374.762 154.248 374.762C162.331 374.762 168.885 381.103 168.885 388.924Z" fill="#6BAC38"/>
<path d="M189.151 408.535C189.151 416.357 182.598 422.698 174.514 422.698C166.431 422.698 159.878 416.357 159.878 408.535C159.878 400.713 166.431 394.373 174.514 394.373C182.598 394.373 189.151 400.713 189.151 408.535Z" fill="#6BAC38"/>
<path d="M168.885 408.535C168.885 416.357 162.331 422.698 154.248 422.698C146.164 422.698 139.611 416.357 139.611 408.535C139.611 400.713 146.164 394.373 154.248 394.373C162.331 394.373 168.885 400.713 168.885 408.535Z" fill="#6BAC38"/>
<path d="M148.619 401.998C148.619 409.82 142.065 416.161 133.982 416.161C125.898 416.161 119.345 409.82 119.345 401.998C119.345 394.176 125.898 387.836 133.982 387.836C142.065 387.836 148.619 394.176 148.619 401.998Z" fill="#6BAC38"/>
<path d="M213.921 415.072C213.921 422.894 207.368 429.234 199.284 429.234C191.2 429.234 184.647 422.894 184.647 415.072C184.647 407.25 191.2 400.909 199.284 400.909C207.368 400.909 213.921 407.25 213.921 415.072Z" fill="#6BAC38"/>
<path d="M263.46 367.137C263.46 374.959 270.013 381.3 278.097 381.3C286.18 381.3 292.733 374.959 292.733 367.137C292.733 359.315 286.18 352.975 278.097 352.975C270.013 352.975 263.46 359.315 263.46 367.137Z" fill="#6BAC38"/>
<path d="M283.726 375.851C283.726 383.672 290.279 390.013 298.363 390.013C306.447 390.013 313 383.672 313 375.851C313 368.029 306.447 361.688 298.363 361.688C290.279 361.688 283.726 368.029 283.726 375.851Z" fill="#6BAC38"/>
<path d="M263.46 388.924C263.46 396.746 270.013 403.087 278.097 403.087C286.18 403.087 292.733 396.746 292.733 388.924C292.733 381.103 286.18 374.762 278.097 374.762C270.013 374.762 263.46 381.103 263.46 388.924Z" fill="#6BAC38"/>
<path d="M243.194 375.851C243.194 383.672 249.747 390.013 257.831 390.013C265.914 390.013 272.467 383.672 272.467 375.851C272.467 368.029 265.914 361.688 257.831 361.688C249.747 361.688 243.194 368.029 243.194 375.851Z" fill="#6BAC38"/>
<path d="M222.928 362.777C222.928 370.599 229.481 376.939 237.564 376.939C245.648 376.939 252.201 370.599 252.201 362.777C252.201 354.955 245.648 348.614 237.564 348.614C229.481 348.614 222.928 354.955 222.928 362.777Z" fill="#6BAC38"/>
<path d="M222.928 382.388C222.928 390.209 229.481 396.55 237.564 396.55C245.648 396.55 252.201 390.209 252.201 382.388C252.201 374.566 245.648 368.225 237.564 368.225C229.481 368.225 222.928 374.566 222.928 382.388Z" fill="#6BAC38"/>
<path d="M202.662 378.028C202.662 385.85 209.215 392.19 217.298 392.19C225.382 392.19 231.935 385.85 231.935 378.028C231.935 370.206 225.382 363.865 217.298 363.865C209.215 363.865 202.662 370.206 202.662 378.028Z" fill="#6BAC38"/>
<path d="M182.396 393.278C182.396 401.1 188.949 407.44 197.032 407.44C205.116 407.44 211.669 401.1 211.669 393.278C211.669 385.456 205.116 379.115 197.032 379.115C188.949 379.115 182.396 385.456 182.396 393.278Z" fill="#6BAC38"/>
<path d="M202.662 401.998C202.662 409.82 209.215 416.161 217.298 416.161C225.382 416.161 231.935 409.82 231.935 401.998C231.935 394.176 225.382 387.836 217.298 387.836C209.215 387.836 202.662 394.176 202.662 401.998Z" fill="#6BAC38"/>
<path d="M222.928 401.998C222.928 409.82 229.481 416.161 237.564 416.161C245.648 416.161 252.201 409.82 252.201 401.998C252.201 394.176 245.648 387.836 237.564 387.836C229.481 387.836 222.928 394.176 222.928 401.998Z" fill="#6BAC38"/>
<path d="M243.194 395.461C243.194 403.283 249.747 409.624 257.831 409.624C265.914 409.624 272.467 403.283 272.467 395.461C272.467 387.64 265.914 381.299 257.831 381.299C249.747 381.299 243.194 387.64 243.194 395.461Z" fill="#6BAC38"/>
<path d="M173.388 354.064C173.388 361.885 179.941 368.226 188.025 368.226C196.109 368.226 202.662 361.885 202.662 354.064C202.662 346.242 196.109 339.901 188.025 339.901C179.941 339.901 173.388 346.242 173.388 354.064Z" fill="#6BAC38"/>
<path d="M148.618 362.777C148.618 370.599 155.172 376.939 163.255 376.939C171.339 376.939 177.892 370.599 177.892 362.777C177.892 354.955 171.339 348.614 163.255 348.614C155.172 348.614 148.618 354.955 148.618 362.777Z" fill="#6BAC38"/>
<path d="M164.381 375.851C164.381 383.672 170.934 390.013 179.018 390.013C187.101 390.013 193.654 383.672 193.654 375.851C193.654 368.029 187.101 361.688 179.018 361.688C170.934 361.688 164.381 368.029 164.381 375.851Z" fill="#6BAC38"/>
<path d="M159.877 395.461C159.877 403.283 166.431 409.624 174.514 409.624C182.598 409.624 189.151 403.283 189.151 395.461C189.151 387.64 182.598 381.299 174.514 381.299C166.431 381.299 159.877 387.64 159.877 395.461Z" fill="#6BAC38"/>
<path d="M177.892 408.535C177.892 416.357 184.445 422.698 192.528 422.698C200.612 422.698 207.165 416.357 207.165 408.535C207.165 400.713 200.612 394.373 192.528 394.373C184.445 394.373 177.892 400.713 177.892 408.535Z" fill="#6BAC38"/>
<path d="M189.151 384.564C189.151 392.386 182.598 398.727 174.514 398.727C166.431 398.727 159.878 392.386 159.878 384.564C159.878 376.742 166.431 370.402 174.514 370.402C182.598 370.402 189.151 376.742 189.151 384.564Z" fill="#6BAC38"/>
<path d="M209.417 399.815C209.417 407.637 202.864 413.978 194.781 413.978C186.697 413.978 180.144 407.637 180.144 399.815C180.144 391.993 186.697 385.652 194.781 385.652C202.864 385.652 209.417 391.993 209.417 399.815Z" fill="#6BAC38"/>
<path d="M218.424 360.6C218.424 368.422 211.871 374.763 203.788 374.763C195.704 374.763 189.151 368.422 189.151 360.6C189.151 352.779 195.704 346.438 203.788 346.438C211.871 346.438 218.424 352.779 218.424 360.6Z" fill="#6BAC38"/>
<path d="M243.194 369.314C243.194 377.136 236.641 383.476 228.557 383.476C220.474 383.476 213.921 377.136 213.921 369.314C213.921 361.492 220.474 355.151 228.557 355.151C236.641 355.151 243.194 361.492 243.194 369.314Z" fill="#6BAC38"/>
<path d="M227.431 382.388C227.431 390.209 220.878 396.55 212.794 396.55C204.711 396.55 198.158 390.209 198.158 382.388C198.158 374.566 204.711 368.225 212.794 368.225C220.878 368.225 227.431 374.566 227.431 382.388Z" fill="#6BAC38"/>
<path d="M231.935 401.998C231.935 409.82 225.382 416.161 217.298 416.161C209.215 416.161 202.662 409.82 202.662 401.998C202.662 394.176 209.215 387.836 217.298 387.836C225.382 387.836 231.935 394.176 231.935 401.998Z" fill="#6BAC38"/>
<path d="M101.33 0H126.101C133.562 0 139.611 5.85303 139.611 13.073V84.9531L139.611 84.9749C139.611 87.4309 138.445 89.5706 136.72 90.6875L136.729 90.7144L136.628 90.7456C135.913 91.1885 135.107 91.4575 134.25 91.5042C110.1 99.396 87.4047 112.654 68.1392 131.295C1.30614 195.963 1.30614 300.811 68.1392 365.479C134.972 430.146 243.33 430.146 310.163 365.479C376.996 300.811 376.996 195.963 310.163 131.295C290.897 112.653 268.2 99.3958 244.048 91.5039C243.194 91.4568 242.39 91.1887 241.677 90.7478C241.641 90.7366 241.605 90.7256 241.569 90.7144L241.579 90.6855C239.856 89.5681 238.69 87.4294 238.69 84.9749C238.69 84.9587 238.69 84.9424 238.69 84.9263V13.073C238.69 5.85303 244.739 0 252.201 0H276.971C281.945 0 285.978 3.9021 285.978 8.71533C285.978 13.5288 281.945 17.4309 276.971 17.4309H256.705V77.3872C280.842 86.3005 303.469 100.167 322.901 118.969C396.769 190.445 396.769 306.329 322.901 377.804C249.033 449.279 129.269 449.279 55.4011 377.804C-18.467 306.329 -18.467 190.445 55.4011 118.969C74.8335 100.167 97.4595 86.2998 121.597 77.3862V17.4309H101.33C96.3558 17.4309 92.3232 13.5288 92.3232 8.71533C92.3232 3.9021 96.3558 0 101.33 0Z" fill="white"/>
<path fill-rule="evenodd" clip-rule="evenodd" d="M55.4809 188.053C58.8414 189.621 60.2518 193.529 58.6311 196.78C50.7768 212.539 46.6075 224.485 45.5591 236.573C44.5115 248.652 46.5314 261.45 52.0456 278.956C53.1333 282.409 51.122 286.061 47.5532 287.114C43.9844 288.166 40.2095 286.22 39.1218 282.767C33.3567 264.465 30.8473 249.874 32.0956 235.48C33.343 221.097 38.2947 207.487 46.4617 191.101C48.0824 187.85 52.1204 186.485 55.4809 188.053Z" fill="#E6E6E6"/>
<path d="M60.3818 299.071C60.1866 302.676 57.0079 305.445 53.2821 305.256C49.5564 305.067 46.6943 301.991 46.8896 298.386C47.0848 294.781 50.2635 292.012 53.9892 292.201C57.715 292.39 60.5771 295.465 60.3818 299.071Z" fill="#E6E6E6"/>
<path d="M122.207 258.594L122.207 261.991C122.207 265.554 117.902 267.342 115.382 264.822L86.1819 235.622C82.7294 232.169 82.7294 227.966 86.0318 224.664L114.834 195.862C117.367 193.329 121.697 195.147 121.662 198.729L121.623 202.766C121.613 203.813 121.192 204.815 120.452 205.555L98.467 227.54C96.9049 229.102 96.9049 231.635 98.467 233.197L121.036 255.765C121.786 256.516 122.207 257.533 122.207 258.594Z" fill="#E6E6E6"/>
<path d="M254.222 201.565L254.222 198.168C254.222 194.604 258.527 192.817 261.047 195.336L290.247 224.537C293.7 227.989 293.7 232.192 290.398 235.495L261.595 264.297C259.062 266.83 254.732 265.012 254.767 261.429L254.806 257.393C254.817 256.346 255.237 255.344 255.978 254.603L277.962 232.619C279.524 231.057 279.524 228.524 277.962 226.962L255.393 204.393C254.643 203.643 254.222 202.626 254.222 201.565Z" fill="#E6E6E6"/>
<path d="M158.177 192.045L156.407 193.997L141.81 194.485L139.046 191.435L133.517 192.655L133.627 181.796L139.488 175.33L138.382 147.512C138.979 136.958 140.981 132.14 148.335 126.039L148.335 122.135L149.551 121.281L150.768 122.135L150.657 126.405C157.457 132.237 159.62 136.626 160.057 146.78L158.951 175.574L163.042 180.088L163.595 193.143L158.177 192.045Z" fill="#6BAC38"/>
<path d="M138.382 147.512C138.979 136.958 140.649 132.262 148.003 126.161L148.335 122.135L149.551 121.281C148.556 154.345 150.657 180.576 141.81 194.485L139.046 191.435L133.517 192.655L133.627 181.796L139.488 175.33L138.382 147.512Z" fill="#43840F"/>
<ellipse rx="5.43309" ry="5.26845" transform="matrix(0.670977 -0.741478 0.670977 0.741478 149.731 148.848)" fill="white"/>
<path d="M237.055 196.538L235.286 198.49L220.689 198.978L217.924 195.928L212.395 197.148L212.506 186.289L218.367 179.823L217.261 152.005C217.858 141.451 219.86 136.633 227.213 130.532L227.213 126.628L228.43 125.774L229.646 126.628L229.535 130.898C236.335 136.73 238.499 141.119 238.935 151.273L237.829 180.067L241.921 184.581L242.474 197.636L237.055 196.538Z" fill="#6BAC38"/>
<path d="M217.261 152.005C217.858 141.451 219.528 136.755 226.881 130.654L227.213 126.628L228.43 125.774C227.434 158.838 229.535 185.069 220.689 198.978L217.924 195.928L212.395 197.148L212.506 186.289L218.367 179.823L217.261 152.005Z" fill="#43840F"/>
<ellipse rx="5.43309" ry="5.26845" transform="matrix(0.670977 -0.741478 0.670977 0.741478 228.609 153.338)" fill="white"/>
<path d="M203.185 134.635L200.51 137.175L178.447 137.81L174.268 133.841L165.911 135.429L166.078 121.298L174.937 112.883L173.266 76.6836C174.168 62.9489 177.194 56.6786 188.309 48.7399L188.309 43.6593L190.147 42.5479L191.986 43.6593L191.819 49.2163C202.096 56.8051 205.366 62.5172 206.026 75.7309L204.355 113.201L210.539 119.075L211.375 136.064L203.185 134.635Z" fill="#6BAC38"/>
<path d="M173.266 76.6836C174.168 62.9489 176.692 56.8374 187.807 48.8987L188.309 43.6593L190.147 42.5479C188.643 85.5747 191.819 119.71 178.447 137.81L174.268 133.841L165.911 135.429L166.078 121.298L174.937 112.883L173.266 76.6836Z" fill="#43840F"/>
<ellipse rx="7.6064" ry="7.37589" transform="matrix(0.724487 -0.689288 0.724487 0.689288 190.425 78.413)" fill="white"/>
<path d="M163.448 377.953L152.166 193.274H149.345H145.467L134.889 377.953H145.467L149.345 222.434L155.339 377.953H163.448Z" fill="#6BAC38"/>
<path d="M213.902 369.385L225.184 198.033H228.005H231.883L242.46 369.385H231.883L228.005 225.089L222.011 369.385H213.902Z" fill="#6BAC38"/>
<path d="M211.998 363.674L194.698 131.397H190.373H184.427L168.208 363.674H184.427L190.373 168.072L199.564 363.674H211.998Z" fill="#6BAC38"/>
<path d="M32.44 506H30.7C30.3 506 30.1 505.76 30.1 505.28V468.14C30.1 467.66 30.3 467.42 30.7 467.42H44.38C46.98 467.42 49.04 468.18 50.56 469.7C52.08 471.22 52.84 473.3 52.84 475.94V481.64C52.84 483.88 52.26 485.72 51.1 487.16C49.98 488.6 48.44 489.52 46.48 489.92V490.16L53.62 505.28C53.86 505.76 53.72 506 53.2 506H51.34C50.82 506 50.46 505.76 50.26 505.28L43.18 490.16H33.7C33.3 490.16 33.1 490.34 33.1 490.7V505.28C33.1 505.76 32.88 506 32.44 506ZM33.7 487.58H44.08C45.92 487.58 47.34 487.08 48.34 486.08C49.34 485.04 49.84 483.58 49.84 481.7V476.06C49.84 474.18 49.34 472.72 48.34 471.68C47.34 470.64 45.92 470.12 44.08 470.12H33.7C33.3 470.12 33.1 470.3 33.1 470.66V487.04C33.1 487.4 33.3 487.58 33.7 487.58ZM70.1908 503.3H77.0308C78.8708 503.3 80.2708 502.8 81.2308 501.8C82.2308 500.76 82.7308 499.28 82.7308 497.36V476.06C82.7308 474.14 82.2308 472.68 81.2308 471.68C80.2708 470.64 78.8708 470.12 77.0308 470.12H70.1908C68.3508 470.12 66.9508 470.64 65.9908 471.68C65.0308 472.72 64.5508 474.18 64.5508 476.06V497.36C64.5508 499.24 65.0308 500.7 65.9908 501.74C66.9508 502.78 68.3508 503.3 70.1908 503.3ZM77.3308 506H69.9508C67.3508 506 65.2908 505.24 63.7708 503.72C62.2908 502.2 61.5508 500.12 61.5508 497.48V475.94C61.5508 473.3 62.2908 471.22 63.7708 469.7C65.2908 468.18 67.3508 467.42 69.9508 467.42H77.3308C79.9308 467.42 81.9708 468.18 83.4508 469.7C84.9708 471.22 85.7308 473.3 85.7308 475.94V497.48C85.7308 500.12 84.9708 502.2 83.4508 503.72C81.9708 505.24 79.9308 506 77.3308 506ZM110.675 506H103.115C100.515 506 98.4548 505.24 96.9348 503.72C95.4548 502.2 94.7148 500.12 94.7148 497.48V475.94C94.7148 473.3 95.4548 471.22 96.9348 469.7C98.4548 468.18 100.515 467.42 103.115 467.42H110.675C113.275 467.42 115.315 468.18 116.795 469.7C118.315 471.22 119.075 473.3 119.075 475.94V478.88C119.075 479.36 118.855 479.6 118.415 479.6H116.735C116.295 479.6 116.075 479.36 116.075 478.88V476.06C116.075 474.14 115.575 472.68 114.575 471.68C113.615 470.64 112.215 470.12 110.375 470.12H103.355C101.515 470.12 100.115 470.64 99.1548 471.68C98.1948 472.72 97.7148 474.18 97.7148 476.06V497.36C97.7148 499.24 98.1948 500.7 99.1548 501.74C100.115 502.78 101.515 503.3 103.355 503.3H110.375C112.215 503.3 113.615 502.8 114.575 501.8C115.575 500.76 116.075 499.28 116.075 497.36V494.54C116.075 494.06 116.295 493.82 116.735 493.82H118.415C118.855 493.82 119.075 494.06 119.075 494.54V497.48C119.075 500.12 118.315 502.2 116.795 503.72C115.315 505.24 113.275 506 110.675 506ZM130.174 506H128.434C128.034 506 127.834 505.76 127.834 505.28V468.14C127.834 467.66 128.034 467.42 128.434 467.42H130.174C130.614 467.42 130.834 467.66 130.834 468.14V490.28H131.074C131.314 489.64 131.674 488.98 132.154 488.3L147.394 468.14C147.754 467.66 148.174 467.42 148.654 467.42H150.754C151.274 467.42 151.354 467.66 150.994 468.14L138.934 484.28L152.854 505.28C153.174 505.76 153.054 506 152.494 506H150.814C150.214 506 149.774 505.76 149.494 505.28L137.014 486.56L130.834 494V505.28C130.834 505.76 130.614 506 130.174 506ZM178.791 506H160.251C159.851 506 159.651 505.76 159.651 505.28V468.14C159.651 467.66 159.851 467.42 160.251 467.42H178.791C179.271 467.42 179.511 467.64 179.511 468.08V469.46C179.511 469.9 179.271 470.12 178.791 470.12H163.251C162.851 470.12 162.651 470.3 162.651 470.66V484.46C162.651 484.82 162.851 485 163.251 485H177.111C177.551 485 177.771 485.22 177.771 485.66V487.04C177.771 487.48 177.551 487.7 177.111 487.7H163.251C162.851 487.7 162.651 487.88 162.651 488.24V502.76C162.651 503.12 162.851 503.3 163.251 503.3H178.791C179.271 503.3 179.511 503.52 179.511 503.96V505.34C179.511 505.78 179.271 506 178.791 506ZM196.938 506H195.198C194.758 506 194.538 505.76 194.538 505.28V470.66C194.538 470.3 194.338 470.12 193.938 470.12H185.238C184.758 470.12 184.518 469.9 184.518 469.46V468.08C184.518 467.64 184.758 467.42 185.238 467.42H206.838C207.318 467.42 207.558 467.64 207.558 468.08V469.46C207.558 469.9 207.318 470.12 206.838 470.12H198.138C197.738 470.12 197.538 470.3 197.538 470.66V505.28C197.538 505.76 197.338 506 196.938 506ZM213.493 497.48V495.32C213.493 494.88 213.713 494.66 214.153 494.66H215.893C216.333 494.66 216.553 494.88 216.553 495.32V497.3C216.553 501.3 218.493 503.3 222.373 503.3H228.613C232.493 503.3 234.433 501.28 234.433 497.24V494.72C234.433 492.96 233.713 491.58 232.273 490.58C230.833 489.58 229.093 488.86 227.053 488.42C225.013 487.98 222.953 487.52 220.873 487.04C218.833 486.56 217.093 485.68 215.653 484.4C214.213 483.12 213.493 481.4 213.493 479.24V475.94C213.493 473.3 214.253 471.22 215.773 469.7C217.293 468.18 219.353 467.42 221.953 467.42H228.913C231.513 467.42 233.573 468.18 235.093 469.7C236.613 471.22 237.373 473.3 237.373 475.94V477.62C237.373 478.06 237.153 478.28 236.713 478.28H234.973C234.533 478.28 234.313 478.06 234.313 477.62V476.12C234.313 472.12 232.373 470.12 228.493 470.12H222.313C218.473 470.12 216.553 472.16 216.553 476.24V479.24C216.553 482 219.013 483.86 223.933 484.82C225.973 485.22 228.013 485.68 230.053 486.2C232.133 486.72 233.893 487.66 235.333 489.02C236.773 490.38 237.493 492.22 237.493 494.54V497.48C237.493 500.12 236.733 502.2 235.213 503.72C233.693 505.24 231.633 506 229.033 506H221.953C219.353 506 217.293 505.24 215.773 503.72C214.253 502.2 213.493 500.12 213.493 497.48Z" fill="white"/>
<path d="M276.9 506H257.16C256.32 506 255.9 505.58 255.9 504.74V468.68C255.9 467.84 256.32 467.42 257.16 467.42H262.26C263.1 467.42 263.52 467.84 263.52 468.68V498.68C263.52 499.12 263.76 499.34 264.24 499.34H276.9C277.7 499.34 278.1 499.78 278.1 500.66V504.74C278.1 505.58 277.7 506 276.9 506ZM286.873 506H281.113C280.393 506 280.153 505.58 280.393 504.74L289.873 468.68C290.153 467.84 290.753 467.42 291.673 467.42H299.653C300.653 467.42 301.253 467.84 301.453 468.68L310.933 504.74C311.173 505.58 310.933 506 310.213 506H304.453C304.013 506 303.713 505.92 303.553 505.76C303.393 505.56 303.273 505.22 303.193 504.74L301.513 498.14H289.813L288.133 504.74C288.053 505.22 287.913 505.56 287.713 505.76C287.553 505.92 287.273 506 286.873 506ZM295.573 474.68L291.253 492.02H300.133L295.813 474.68H295.573ZM324.532 499.64H331.252C332.572 499.64 333.512 499.38 334.072 498.86C334.672 498.3 334.972 497.4 334.972 496.16V492.68C334.972 491.44 334.672 490.56 334.072 490.04C333.472 489.52 332.492 489.26 331.132 489.26H324.532C324.092 489.26 323.872 489.48 323.872 489.92V498.98C323.872 499.42 324.092 499.64 324.532 499.64ZM324.532 483.08H330.652C331.932 483.08 332.872 482.82 333.472 482.3C334.072 481.74 334.372 480.84 334.372 479.6V477.26C334.372 476.02 334.072 475.14 333.472 474.62C332.912 474.06 331.992 473.78 330.712 473.78H324.532C324.092 473.78 323.872 474 323.872 474.44V482.42C323.872 482.86 324.092 483.08 324.532 483.08ZM316.252 504.74V468.68C316.252 467.84 316.672 467.42 317.512 467.42H331.912C335.072 467.42 337.512 468.26 339.232 469.94C340.952 471.62 341.812 474.02 341.812 477.14V479.6C341.812 483 340.232 485.2 337.072 486.2C338.672 486.44 339.952 487.1 340.912 488.18C341.872 489.22 342.352 490.72 342.352 492.68V496.28C342.352 499.4 341.492 501.8 339.772 503.48C338.052 505.16 335.632 506 332.512 506H317.512C316.672 506 316.252 505.58 316.252 504.74Z" fill="white"/>
</svg>
